<mxfile host="65bd71144e">
    <diagram id="3hkoi7SlH17F2ftz7Re7" name="Page-1">
        <mxGraphModel dx="1337" dy="1527" grid="1" gridSize="10" guides="1" tooltips="1" connect="1" arrows="1" fold="1" page="1" pageScale="1" pageWidth="850" pageHeight="1100" math="0" shadow="0">
            <root>
                <mxCell id="0"/>
                <mxCell id="1" parent="0"/>
                <mxCell id="19" value="Parent Class: Ghost" style="swimlane;fontStyle=0;childLayout=stackLayout;horizontal=1;startSize=30;horizontalStack=0;resizeParent=1;resizeParentMax=0;resizeLast=0;collapsible=1;marginBottom=0;whiteSpace=wrap;html=1;rounded=1;shadow=0;glass=0;sketch=0;fontFamily=Lucida Console;fontSize=8;swimlaneFillColor=default;" vertex="1" parent="1">
                    <mxGeometry x="280" y="-160" width="170" height="120" as="geometry"/>
                </mxCell>
                <mxCell id="20" value="color = this.color" style="text;strokeColor=none;fillColor=none;align=left;verticalAlign=middle;spacingLeft=4;spacingRight=4;overflow=hidden;points=[[0,0.5],[1,0.5]];portConstraint=eastwest;rotatable=0;whiteSpace=wrap;html=1;rounded=1;shadow=0;glass=0;sketch=0;fontFamily=Lucida Console;fontSize=8;" vertex="1" parent="19">
                    <mxGeometry y="30" width="170" height="30" as="geometry"/>
                </mxCell>
                <mxCell id="21" value="speed = this.speed" style="text;strokeColor=none;fillColor=none;align=left;verticalAlign=middle;spacingLeft=4;spacingRight=4;overflow=hidden;points=[[0,0.5],[1,0.5]];portConstraint=eastwest;rotatable=0;whiteSpace=wrap;html=1;rounded=1;shadow=0;glass=0;sketch=0;fontFamily=Lucida Console;fontSize=8;" vertex="1" parent="19">
                    <mxGeometry y="60" width="170" height="30" as="geometry"/>
                </mxCell>
                <mxCell id="22" value="type = this.type" style="text;strokeColor=none;fillColor=none;align=left;verticalAlign=middle;spacingLeft=4;spacingRight=4;overflow=hidden;points=[[0,0.5],[1,0.5]];portConstraint=eastwest;rotatable=0;whiteSpace=wrap;html=1;rounded=1;shadow=0;glass=0;sketch=0;fontFamily=Lucida Console;fontSize=8;" vertex="1" parent="19">
                    <mxGeometry y="90" width="170" height="30" as="geometry"/>
                </mxCell>
                <mxCell id="23" value="Chaser 1" style="swimlane;horizontal=0;whiteSpace=wrap;html=1;rounded=1;shadow=0;glass=0;sketch=0;fontFamily=Lucida Console;fontSize=8;" vertex="1" parent="1">
                    <mxGeometry x="-220" y="110" width="120" height="100" as="geometry"/>
                </mxCell>
                <mxCell id="37" value="&lt;span style=&quot;color: rgb(240, 240, 240); font-family: &amp;quot;Lucida Console&amp;quot;; font-size: 8px; font-style: normal; font-variant-ligatures: normal; font-variant-caps: normal; font-weight: 400; letter-spacing: normal; orphans: 2; text-align: center; text-indent: 0px; text-transform: none; widows: 2; word-spacing: 0px; -webkit-text-stroke-width: 0px; background-color: rgb(42, 37, 47); text-decoration-thickness: initial; text-decoration-style: initial; text-decoration-color: initial; float: none; display: inline !important;&quot;&gt;Level: 1&lt;/span&gt;" style="text;whiteSpace=wrap;html=1;fontSize=8;fontFamily=Lucida Console;" vertex="1" parent="23">
                    <mxGeometry x="30" y="10" width="90" height="30" as="geometry"/>
                </mxCell>
                <mxCell id="24" value="Chaser 2" style="swimlane;horizontal=0;whiteSpace=wrap;html=1;rounded=1;shadow=0;glass=0;sketch=0;fontFamily=Lucida Console;fontSize=8;" vertex="1" parent="1">
                    <mxGeometry x="-90" y="110" width="120" height="100" as="geometry"/>
                </mxCell>
                <mxCell id="38" value="&lt;span style=&quot;color: rgb(240, 240, 240); font-family: &amp;quot;Lucida Console&amp;quot;; font-size: 8px; font-style: normal; font-variant-ligatures: normal; font-variant-caps: normal; font-weight: 400; letter-spacing: normal; orphans: 2; text-align: center; text-indent: 0px; text-transform: none; widows: 2; word-spacing: 0px; -webkit-text-stroke-width: 0px; background-color: rgb(42, 37, 47); text-decoration-thickness: initial; text-decoration-style: initial; text-decoration-color: initial; float: none; display: inline !important;&quot;&gt;Level: 2&lt;/span&gt;" style="text;whiteSpace=wrap;html=1;fontSize=8;fontFamily=Lucida Console;" vertex="1" parent="24">
                    <mxGeometry x="30" y="10" width="90" height="30" as="geometry"/>
                </mxCell>
                <mxCell id="25" value="Chaser 3" style="swimlane;horizontal=0;whiteSpace=wrap;html=1;rounded=1;shadow=0;glass=0;sketch=0;fontFamily=Lucida Console;fontSize=8;" vertex="1" parent="1">
                    <mxGeometry x="40" y="110" width="120" height="100" as="geometry"/>
                </mxCell>
                <mxCell id="39" value="&lt;span style=&quot;color: rgb(240, 240, 240); font-family: &amp;quot;Lucida Console&amp;quot;; font-size: 8px; font-style: normal; font-variant-ligatures: normal; font-variant-caps: normal; font-weight: 400; letter-spacing: normal; orphans: 2; text-align: center; text-indent: 0px; text-transform: none; widows: 2; word-spacing: 0px; -webkit-text-stroke-width: 0px; background-color: rgb(42, 37, 47); text-decoration-thickness: initial; text-decoration-style: initial; text-decoration-color: initial; float: none; display: inline !important;&quot;&gt;Level: 3&lt;/span&gt;" style="text;whiteSpace=wrap;html=1;fontSize=8;fontFamily=Lucida Console;" vertex="1" parent="25">
                    <mxGeometry x="30" y="10" width="90" height="30" as="geometry"/>
                </mxCell>
                <mxCell id="26" value="&lt;font face=&quot;Lucida Console&quot;&gt;&lt;br&gt;&lt;/font&gt;" style="rounded=1;whiteSpace=wrap;html=1;glass=0;shadow=0;" vertex="1" parent="1">
                    <mxGeometry x="325" y="20" width="100" height="40" as="geometry"/>
                </mxCell>
                <mxCell id="31" value="Chaser" style="swimlane;whiteSpace=wrap;html=1;rounded=1;shadow=0;glass=0;sketch=0;fontFamily=Lucida Console;fontSize=8;fillColor=#1b1821;swimlaneFillColor=default;gradientColor=none;" vertex="1" parent="1">
                    <mxGeometry x="-80" y="-70" width="165" height="150" as="geometry"/>
                </mxCell>
                <mxCell id="33" value="&lt;b&gt;Abilities&lt;/b&gt;:&amp;nbsp;&lt;br&gt;&lt;span style=&quot;white-space: pre;&quot;&gt;&#9;&lt;/span&gt;1.&amp;nbsp;&lt;span style=&quot;background-color: rgb(0, 0, 0);&quot;&gt;Fastest Ghost&lt;/span&gt;&amp;nbsp;&amp;nbsp;&lt;br&gt;&lt;span style=&quot;white-space: pre;&quot;&gt;&#9;&lt;span style=&quot;white-space: pre;&quot;&gt;&#9;&lt;/span&gt;&lt;/span&gt;this.speed = speed&lt;br&gt;&lt;span style=&quot;white-space: pre;&quot;&gt;&#9;&lt;/span&gt;&lt;span style=&quot;white-space: pre;&quot;&gt;&#9;&lt;/span&gt;var ChaserSpeed = 5&lt;br&gt;&lt;br&gt;2.&amp;nbsp; &amp;nbsp; &amp;nbsp; &amp;nbsp;&amp;nbsp;" style="text;html=1;align=center;verticalAlign=middle;resizable=0;points=[];autosize=1;strokeColor=none;fillColor=none;fontSize=8;fontFamily=Lucida Console;" vertex="1" parent="31">
                    <mxGeometry x="-55" y="40" width="190" height="70" as="geometry"/>
                </mxCell>
                <mxCell id="32" value="&lt;b&gt;Type:&lt;/b&gt; Chaser" style="text;html=1;align=center;verticalAlign=middle;resizable=0;points=[];autosize=1;strokeColor=none;fillColor=none;fontSize=8;fontFamily=Lucida Console;" vertex="1" parent="31">
                    <mxGeometry y="30" width="80" height="20" as="geometry"/>
                </mxCell>
            </root>
        </mxGraphModel>
    </diagram>
</mxfile>